<svg width="512" height="512" id="hexatar-preview" version="1.1" xmlns="http://www.w3.org/2000/svg" xmlns:xlink="http://www.w3.org/1999/xlink" x="0px" y="0px" viewBox="0 0 512 512" style="enable-background:new 0 0 512 512;" xml:space="preserve">
    <g id="hexatar-background"><g class="hexatar-base">
		<rect class="col-obj" x="-0.003" y="0.002" style="fill: transparent;" width="512" height="512"></rect>
		<path class="shadow-obj" style="opacity: 0.9; fill: transparent;" d="M202.192,202.196h-101.65v103.454h101.65V202.196z M305.647,202.196v-101.65H202.192v101.65H305.647z M202.192,305.651V407.3h103.454v-101.65H202.192z M202.192,100.547V-0.517 h-101.65v101.063H202.192z M100.543,305.651H-0.521V407.3h101.063V305.651z M305.647,305.651h101.65V202.196h-101.65V305.651z M407.296,100.547V-0.517h-101.65v101.063H407.296z M100.543,100.547H-0.521v101.65h101.063V100.547z M100.543,407.3v105.22 h101.65V407.3H100.543z M407.296,202.196h105.22v-101.65h-105.22V202.196z M407.296,407.3h105.22v-101.65h-105.22V407.3z M305.647,407.3v105.22h101.65V407.3H305.647z"></path>
	</g></g>
	<g id="hexatar-hair-rear"></g>
	<g id="hexatar-bodies">
		<g id="hexatar-body">
			<polygon class="col-obj" style="fill: rgb(237, 186, 163);" points="380.515,465 301,451 301,334 211,334 211,451 131.636,465 94.115,512   418.035,512 "></polygon>
			<polygon class="shadow-obj" style="fill: rgb(229, 154, 120);" points="380.541,465 301,451 301,334 256,334 256,512 418.062,512 "></polygon>
			<polygon id="hexatar-neck-control" class="shadow-obj-2x" style="opacity: 0.5; fill: rgb(221, 122, 77);" points="301.054,387.482 255.998,427.693 210.942,384.615  210.942,333.485 301.054,333.485 "></polygon>
		</g>
		<g id="hexatar-clothes"><g class="hexatar-base">
		<path class="white-obj" style="fill:#FFFFFF;" d="M305.22,511.994h-98.984v-42.759c0,0,23.37,11.976,49.769,11.976 s49.215-11.976,49.215-11.976V511.994z"></path>
		<path class="col-obj" style="fill: rgb(127, 65, 23);" d="M129.243,464.994l-37.084,47h136.667v-51.526l-32.076-25.152L129.243,464.994z M382.755,464.994l-67.474-29.678l-31.998,25.087v51.582l-0.014,0.009h136.571L382.755,464.994z"></path>
		<path class="shadow-obj" style="opacity: 0.4; fill: rgb(84, 43, 15);" d="M92.159,511.994L140.836,512l-11.37-47.006L92.159,511.994z M383.147,464.994L372.426,512l48.028-0.006L383.147,464.994z"></path>
		<path class="shadow-obj-2x" style="fill: rgb(41, 21, 7);" d="M211.014,411.456l-14.264,23.861l-1.127,35.071l33.203-9.919l-17.855-34.772 L211.014,411.456z M301.023,411.456v14.445l-17.741,34.502l34.716,9.983l-2.718-35.071L301.023,411.456z"></path>
	</g></g>
	</g>
	<g id="hexatar-faces">
		<g id="hexatar-ears"><g class="hexatar-base">
		<g class="hexatar-ears-right"> 	<polygon class="col-obj" style="fill: rgb(237, 186, 163);" points="172.639,176.555 172.639,243.147 154.47,251.417 138.743,242.769  115.596,187.997 141.602,155.736"></polygon> 	<polygon class="shadow-obj" style="fill: rgb(229, 154, 120);" points="143.639,169.144 127.136,189.615 146.602,235.678 154.893,240.237  172.639,231.856 172.639,188.018"></polygon>
		</g>
		<g class="hexatar-ears-left"> 	<polygon class="shadow-obj" style="fill: rgb(229, 154, 120);" points="339.621,243.147 339.621,176.555 369.839,155.736 395.845,187.997  373.552,240.749 356.971,251.417"></polygon> 	<polygon class="shadow-obj-2x" style="fill: rgb(221, 122, 77);" points="367.874,169.233 339.621,188.383 339.621,232.942 356.246,239.992  365.543,234.011 384.305,189.615"></polygon>
		</g>
	</g></g>
		<g id="hexatar-face"><g class="hexatar-base">
		<polygon class="col-obj" style="fill: rgb(237, 186, 163);" points="256.005,7.17 153.605,71.355 153.605,250.624 167.978,283.77  172.312,347.088 216.444,386.05 296.385,386.05 339.698,347.088 344.031,283.398 358.404,250.624 358.404,71.355"></polygon>
		<polygon class="shadow-obj" style="opacity: 0.5; fill: rgb(229, 154, 120);" points="167.978,283.77 171.911,291.042 171.228,331.259"></polygon>
		<polygon class="shadow-obj" style="fill: rgb(229, 154, 120);" points="256.006,7.17 256.005,386.05 296.385,386.05 339.698,347.088  344.031,283.398 358.405,250.624 358.405,71.355"></polygon>
		<polygon class="shadow-obj-2x" style="opacity: 0.5; fill: rgb(221, 122, 77);" points="344.038,283.396 340.105,290.669 340.937,328.877"></polygon>
	</g></g>
		<g id="hexatar-mouth"><g class="hexatar-base">
		<polygon class="col-obj" style="fill: rgb(190, 124, 122);" points="220.382,310.439 292.295,310.439 275.79,322.284 236.887,322.284"></polygon>
		<polygon class="shadow-obj" style="fill: rgb(173, 90, 88);" points="256.219,303.468 245.61,297.601 211.196,310.487 301.481,310.487  266.729,297.491"></polygon>
	</g></g>
		<g id="hexatar-beard"></g>
		<g id="hexatar-mustache"><g class="hexatar-base">
		<polygon class="col-obj" style="fill: rgb(211, 211, 211);" points="299.156,272.625 255.997,262.716 212.839,272.625 206.236,293.644  305.759,293.644"></polygon>
		<polygon class="shadow-obj" style="opacity: 0.4; fill: rgb(185, 185, 185);" points="305.758,293.644 299.156,272.625 255.997,262.716 255.997,293.644"></polygon>
	</g></g>
		<g id="hexatar-nose"><g class="hexatar-base">
		<polygon class="shadow-obj" style="fill: rgb(229, 154, 120);" points="271.2,193.961 262.701,172.435 249.3,172.435 240.801,193.961  237.981,237.791 229.797,242.25 225.776,260.036 256.001,264.281 285.52,260.036 282.204,242.25 274.02,237.791"></polygon>
		<polygon class="shadow-obj-2x" style="fill: rgb(221, 122, 77);" points="271.2,193.961 262.701,172.435 256.001,172.435 256.001,264.281  285.52,260.036 282.204,242.25 274.02,237.791"></polygon>
	</g></g>
		<g id="hexatar-eyeGroup">
			<g id="hexatar-eye"><g class="hexatar-base">
		<g class="hexatar-eye-right">
			<path class="skin-col" style="opacity: 0.3; fill: rgb(221, 122, 77);" d="M187.843,196.017c0,11.51,9.785,20.84,21.855,20.84 c11.593,0,21.073-8.609,21.804-19.487L187.843,196.017z"></path>
			<path class="skin-col" style="fill: rgb(221, 122, 77);" d="M187.843,196.017c2.688,3.988,9.785,7.977,21.855,7.977 c11.593,0,18.366-2.375,21.804-5.721L187.843,196.017z"></path>
			<path class="white-obj" style="fill:#FFFFFF;" d="M231.112,196.964c0,0-8.707-10.778-21.439-10.778 s-21.927,10.036-21.927,10.036s8.958,6.944,28.177,4.734l11.253-2.256C230.7,200.399,231.656,198.034,231.112,196.964z"></path>
			<circle class="shadow-obj" style="opacity: 0.3; fill: rgb(0, 0, 0);" cx="209.784" cy="193.515" r="7.892"></circle>
			<circle class="col-obj" style="fill: rgb(17, 17, 17);" cx="209.784" cy="193.271" r="3.69"></circle>
			<circle class="white-obj" style="fill:#FFFFFF;" cx="206.768" cy="195.978" r="2.295"></circle>
			<path class="hair-col" style="fill: rgb(211, 211, 211);" d="M231.112,196.964c0,0-7.688-10.778-21.439-10.778 c-11.1,0-21.83,9.831-21.83,9.831s7.535-11.373,22.381-11.373C227.445,184.645,231.112,196.964,231.112,196.964z"></path>
		</g>
		<g class="hexatar-eye-left">
			<path class="skin-col-2x" style="opacity: 0.3; fill: rgb(207, 92, 40);" d="M328.043,196.017c0,11.51-9.785,20.84-21.855,20.84 c-11.593,0-21.073-8.609-21.804-19.487L328.043,196.017z"></path>
			<path class="skin-col-2x" style="fill: rgb(207, 92, 40);" d="M328.043,196.017c-2.688,3.988-9.785,7.977-21.855,7.977 c-11.593,0-18.366-2.375-21.804-5.721L328.043,196.017z"></path>
			<path class="white-obj" style="fill:#FFFFFF;" d="M284.774,196.964c0,0,8.707-10.778,21.439-10.778s21.927,10.036,21.927,10.036 s-8.958,6.944-28.177,4.734l-11.253-2.256C285.186,200.399,284.23,198.034,284.774,196.964z"></path>
			<circle class="shadow-obj" style="opacity: 0.3; fill: rgb(0, 0, 0);" cx="306.102" cy="193.515" r="7.892"></circle>
			<circle class="col-obj" style="fill: rgb(17, 17, 17);" cx="306.102" cy="193.271" r="3.69"></circle>
			<circle class="white-obj" style="fill:#FFFFFF;" cx="309.118" cy="195.978" r="2.295"></circle>
			<path class="hair-col-2x" style="fill: rgb(185, 185, 185);" d="M284.774,196.964c0,0,7.688-10.778,21.439-10.778 c11.1,0,21.83,9.831,21.83,9.831s-7.535-11.373-22.381-11.373C288.441,184.645,284.774,196.964,284.774,196.964z"></path>
		</g>
	</g></g>
			<g id="hexatar-eyebrows"><g class="hexatar-base">
		<g class="hexatar-eyebrows-right"> 	<path class="col-obj" style="fill: rgb(211, 211, 211);" d="M177.94,175.889l13.191-2.825l44.548,4.564c3.596,0.426,6.563-2.776,5.866-6.33 l-1.646-8.383l-7.205,3.505l-33.753-6.147C191.657,160.784,184.534,172.754,177.94,175.889L177.94,175.889z"></path>
		</g>
		<g class="hexatar-eyebrows-left"> 	<path class="col-obj" style="fill: rgb(211, 211, 211);" d="M334.84,175.74l-13.188-2.678l-44.552,4.687 c-3.595,0.437-6.573-2.757-5.886-6.312l1.629-8.425l7.21,3.437l33.757-6.215C321.096,160.708,328.229,172.641,334.84,175.74 L334.84,175.74z"></path> 	<path class="shadow-obj" style="opacity: 0.4; fill: rgb(185, 185, 185);" d="M334.84,175.74l-13.188-2.678l-44.552,4.687 c-3.595,0.437-6.573-2.757-5.886-6.312l1.629-8.425l7.21,3.437l33.757-6.215C321.096,160.708,328.229,172.641,334.84,175.74 L334.84,175.74z"></path>
		</g>
	</g></g>	
		</g>
		<g id="hexatar-hair-front"><g class="element-front">
			<path class="col-obj" style="fill: rgb(211, 211, 211);" d="M153.602,175.3h18.913l0-115.824l-18.913,11.881L153.602,175.3z M339.489,59.427 l0,115.872h18.913l0-103.943L339.489,59.427z M222.303,28.2h67.677l-33.77-21.299L222.303,28.2z"></path>
			<path class="shadow-obj" style="opacity: 0.4; fill: rgb(185, 185, 185);" d="M339.489,59.427l0,115.872h18.913l0-103.943L339.489,59.427z M256.211,28.2 h33.77l-33.77-21.299V28.2z"></path>
		</g></g>
		<g id="hexatar-hat"></g>
		<g id="hexatar-eyeglasses"><g class="hexatar-base">
		<g class="hexatar-eyeglasses-right">
			<linearGradient class="static-obj" gradientUnits="userSpaceOnUse" x1="168.7443" y1="204.1404" x2="246.119" y2="204.1404">
				<stop offset="0" style="stop-color:#FFFFFF"></stop>
				<stop offset="1" style="stop-color:#000000"></stop>
			</linearGradient>
			<path class="static-obj" style="opacity:0.5;fill:#994D28;stroke:url(#static-obj);stroke-miterlimit:10;" d=" M229.573,225.898c-12.615,7.515-44.444,6.934-53.481-6.67c-8.202-12.346-10.013-32.25,0-37.152 c10.012-4.902,60.697-8.256,67.624,3.359C249.243,194.703,242.189,218.382,229.573,225.898z"></path>
			<path class="col-obj" style="fill: rgb(130, 113, 65);" d="M245.242,180.436c-13.782-9.577-62.58-5.999-72.885-0.953 c-3.4,1.665-5.544,4.862-6.652,8.893l-6.659,1.065c-1.942,1.171-1.838,7.462,0.002,10.473l6.121,1.145 c0.909,6.871,3.472,14.133,7.204,19.99c10.197,16.007,45.721,15.871,59.835,7.463c7.858-4.682,13.752-14.969,16.397-24.958 c3.981-9.379,7.395-8.281,7.395-8.281v-9.691C252.301,185.581,251.451,183.463,245.242,180.436z M228.231,224.58 c-11.851,7.06-41.751,6.514-50.241-6.266c-7.705-11.598-9.406-30.296,0-34.901c9.406-4.605,57.02-7.756,63.527,3.156 C246.71,195.275,240.083,217.52,228.231,224.58z"></path>
		</g>
		<g class="hexatar-eyeglasses-left">
			<linearGradient class="static-obj" gradientUnits="userSpaceOnUse" x1="264.9059" y1="204.1404" x2="344.2383" y2="204.1404">
				<stop offset="0" style="stop-color:#FFFFFF"></stop>
				<stop offset="1" style="stop-color:#000000"></stop>
			</linearGradient>
			<path class="static-obj" style="opacity:0.5;fill:#994D28;stroke:url(#static-obj);stroke-miterlimit:10;" d=" M336.716,219.614c-9.269,13.953-41.914,14.549-54.853,6.841c-12.939-7.708-20.174-31.994-14.505-41.5 c7.104-11.913,59.088-8.473,69.358-3.446C346.985,186.538,345.128,206.952,336.716,219.614z"></path>
			<path class="col-obj" style="fill: rgb(130, 113, 65);" d="M352.954,189.44l-6.663-1.065c-1.108-4.031-3.26-7.228-6.66-8.893 c-10.341-5.063-59.485-8.649-73.074,1.052c-6.018,2.976-6.858,5.047-10.558,5.047v9.691c0,0,3.327-1.065,7.235,7.905 c2.595,10.106,8.589,20.593,16.546,25.333c14.114,8.408,49.646,8.544,59.843-7.463c3.732-5.858,6.298-13.119,7.207-19.99 l6.121-1.145C354.792,196.902,354.896,190.611,352.954,189.44z M333.962,218.289c-8.475,12.758-38.323,13.303-50.154,6.255 s-18.446-29.254-13.263-37.945c6.496-10.893,54.027-7.748,63.417-3.15C343.352,188.046,341.654,206.711,333.962,218.289z"></path>
			<path class="shadow-obj" style="opacity: 0.4; fill: rgb(96, 83, 48);" d="M352.954,189.44l-6.663-1.065c-1.108-4.031-3.26-7.228-6.66-8.893 c-10.341-5.063-59.485-8.649-73.074,1.052c-6.018,2.976-6.858,5.047-10.558,5.047v9.691c0,0,3.327-1.065,7.235,7.905 c2.595,10.106,8.589,20.593,16.546,25.333c14.114,8.408,49.646,8.544,59.843-7.463c3.732-5.858,6.298-13.119,7.207-19.99 l6.121-1.145C354.792,196.902,354.896,190.611,352.954,189.44z M333.962,218.289c-8.475,12.758-38.323,13.303-50.154,6.255 s-18.446-29.254-13.263-37.945c6.496-10.893,54.027-7.748,63.417-3.15C343.352,188.046,341.654,206.711,333.962,218.289z"></path>
		</g>
	</g></g>
	</g>
	<desc>Avatar generated from Hexatar.com - created with Snap</desc><text transform="matrix(1 0 0 1 0 528)" font-size="12">Avatar generated from Hexatar.com</text></svg>