<svg width="512" height="512" id="hexatar-preview" version="1.1" xmlns="http://www.w3.org/2000/svg" xmlns:xlink="http://www.w3.org/1999/xlink" x="0px" y="0px" viewBox="0 0 512 512" style="enable-background:new 0 0 512 512;" xml:space="preserve">
    <g id="hexatar-background"><g class="hexatar-base">
		<rect class="col-obj" x="-0.004" y="0.003" style="fill: transparent;" width="512" height="512"></rect>
	</g></g>
	<g id="hexatar-hair-rear"></g>
	<g id="hexatar-bodies" transform="matrix(2.3855,0,0,2.3855,-354.6715,-585.6835)">
		<g id="hexatar-body">
			<polygon class="col-obj" style="fill:#FCE2E1;" points="380.515,465 301,451 301,334 211,334 211,451 131.636,465 94.115,512   418.035,512 "></polygon>
			<polygon class="shadow-obj" style="fill: rgb(247, 181, 179);" points="380.541,465 301,451 301,334 256,334 256,512 418.062,512 "></polygon>
			<polygon id="hexatar-neck-control" class="shadow-obj-2x" style="opacity: 0.5; fill: rgb(242, 136, 133);" points="301.054,387.482 255.998,427.693 210.942,384.615  210.942,333.485 301.054,333.485 "></polygon>
		</g>
		<g id="hexatar-clothes"><g class="hexatar-base">
		<polygon class="col-obj" style="fill: rgb(101, 87, 0);" points="382.755,464.994 345.102,456.366 342.573,447.966 329.267,439.566  320.73,419.2 301.055,410.201 300.909,449.043 256.039,503.229 211.014,448.261 211.014,410.201 191.282,419.2 182.739,439.566  169.43,447.966 166.897,456.366 129.243,464.994 92.159,511.994 419.839,511.994"></polygon>
		<path class="shadow-obj-2x" style="opacity: 0.8; fill: rgb(0, 0, 0);" d="M268.224,511.994h11.112l62.881-53.128L268.224,511.994z M315.402,424.396l-8.197,3.291l-6.15-4.693l0.028,26.221L315.402,424.396z M210.943,424.396l-7.975,4.141l-7.165-3.039 l15.168,22.763L210.943,424.396z M232.825,511.994h11.112l-73.992-53.128L232.825,511.994z"></path>
		<path class="shadow-obj" style="opacity: 0.4; fill: rgb(50, 43, 0);" d="M92.159,511.994h50.261l-13.177-47L92.159,511.994z M382.755,464.994l-11.969,47.003h49.054L382.755,464.994z"></path>
	</g></g>
	</g>
	<g id="hexatar-faces">
		<g id="hexatar-ears"><g class="hexatar-base">
		<g class="hexatar-ears-right"> 	<polygon class="col-obj" style="fill:#FCE2E1;" points="172.062,168.76 172.062,238.392 127.687,238.392 109.255,203.576  127.687,168.76"></polygon> 	<polygon class="shadow-obj" style="fill: rgb(247, 181, 179);" points="137.955,219.998 129.261,203.576 137.955,187.154 172.062,187.154  172.062,219.998"></polygon>
		</g>
		<g class="hexatar-ears-left"> 	<polygon class="shadow-obj" style="fill: rgb(247, 181, 179);" points="340.163,238.392 340.163,168.76 382.976,168.76 401.408,203.576  382.976,238.392"></polygon> 	<polygon class="shadow-obj-2x" style="fill: rgb(242, 136, 133);" points="372.708,187.154 381.402,203.576 372.708,219.998  340.163,219.998 340.163,187.154"></polygon>
		</g>
	</g></g>
		<g id="hexatar-face"><g class="hexatar-base">
		<path class="col-obj" style="fill:#FCE2E1;" d="M256.005,7.17l-102.4,64.185l0,215.354c0,30.805,15.891,59.432,42.035,75.724 l29.615,18.455c18.815,11.725,42.668,11.701,61.46-0.062l29.805-18.657c26.058-16.311,41.883-44.887,41.883-75.629l0-215.185 L256.005,7.17z"></path>
		<path class="shadow-obj" style="fill: rgb(247, 181, 179);" d="M286.716,380.827L286.716,380.827l29.806-18.657 c26.058-16.311,41.883-44.887,41.883-75.629V71.355L256.005,7.17l-0.001,382.495C266.666,389.652,277.323,386.706,286.716,380.827 z"></path>
	</g></g>
		<g id="hexatar-mouth" transform="matrix(1.3211,0,0,1.3211,-82.3233,-87.9283)"><g class="hexatar-base">
		<polygon class="col-obj" style="fill: rgb(236, 163, 143);" points="220.382,310.439 292.295,310.439 275.79,322.284 236.887,322.284"></polygon>
		<polygon class="shadow-obj" style="fill: rgb(229, 127, 99);" points="256.219,303.468 245.61,297.601 211.196,310.487 301.481,310.487  266.729,297.491"></polygon>
	</g></g>
		<g id="hexatar-beard" transform="matrix(1,0,0,1,0,20.75)"><g class="hexatar-base">
		<polygon class="col-obj" style="fill: rgb(178, 156, 142);" points="339.689,227.765 339.689,301.365 284.562,358.831 268.29,358.831  268.29,351.351 261.463,335.083 250.726,335.083 243.899,351.351 243.899,358.831 229.607,358.831 172.537,303.489  172.537,227.765 153.613,227.765 153.613,351.682 226.502,412.026 287.667,412.026 358.604,351.682 358.603,351.682  358.613,227.765"></polygon>
		<polygon class="shadow-obj" style="opacity: 0.4; fill: rgb(157, 129, 112);" points="339.689,227.765 339.689,301.365 284.562,358.831 268.29,358.831  268.29,351.351 261.463,335.083 256.093,335.083 256.093,412.026 287.667,412.026 358.604,351.682 358.603,351.682  358.613,227.765"></polygon>
	</g></g>
		<g id="hexatar-mustache" transform="matrix(1.8231,0,0,1.8231,-210.6221,-209.696)"><g class="hexatar-base">
		<path class="col-obj" style="fill: rgb(178, 156, 142);" d="M304.942,290.058c-3.386-2.758-36.139-23.78-40.034-23.78 c-3.895,0-9.029,6.086-9.029,6.086s-5.134-6.086-9.03-6.086s-36.649,21.023-40.034,23.78c-3.386,2.758-0.858,25.932-3.845,30.315 c9.651-2.28,14.971-18.812,15.413-22.955c0.443-4.143,20.103-10.577,25.554-12.416c5.451-1.838,7.861,0,11.941,0 c4.081,0,6.49-1.838,11.941,0c5.451,1.838,25.112,8.273,25.554,12.416s5.762,20.675,15.413,22.955 C305.8,315.989,308.327,292.815,304.942,290.058z"></path>
		<path class="shadow-obj" style="opacity: 0.4; fill: rgb(157, 129, 112);" d="M255.878,272.364c0,0,5.134-6.086,9.03-6.086 c3.895,0,36.649,21.023,40.034,23.78c3.386,2.758,0.858,25.932,3.845,30.315c-9.651-2.28-14.971-18.812-15.413-22.955 c-0.443-4.143-20.103-10.577-25.554-12.416c-5.451-1.838-7.861,0-11.941,0V272.364z"></path>
	</g></g>
		<g id="hexatar-nose" transform="matrix(1.1038,0,0,1.1038,-26.5934,-7.038)"><g class="hexatar-base">
		<polygon class="shadow-obj" style="fill: rgb(247, 181, 179);" points="271.2,193.961 262.701,172.435 249.3,172.435 240.801,193.961  237.981,237.791 229.797,242.25 225.776,260.036 256.001,264.281 285.52,260.036 282.204,242.25 274.02,237.791"></polygon>
		<polygon class="shadow-obj-2x" style="fill: rgb(242, 136, 133);" points="271.2,193.961 262.701,172.435 256.001,172.435 256.001,264.281  285.52,260.036 282.204,242.25 274.02,237.791"></polygon>
	</g></g>
		<g id="hexatar-eyeGroup">
			<g id="hexatar-eye" transform="matrix(1,0,0,1,0,-5.75)"><g class="hexatar-base">
		<g class="hexatar-eye-right">
			<path class="skin-col-2x" style="opacity: 0.3; fill: rgb(237, 91, 87);" d="M206.277,212.838c-16.803,0-19.741-20.016-19.741-20.016h39.972 C226.508,192.822,223.081,212.838,206.277,212.838z"></path>
			<path class="white-obj" style="fill:#FFFFFF;" d="M206.277,208.451c-15.136,0-19.741-15.63-19.741-15.63h39.972 C226.508,192.822,221.413,208.451,206.277,208.451z"></path>
			<path class="shadow-obj" style="opacity: 0.3; fill: rgb(0, 0, 0);" d="M206.738,201.414c4.411,0,7.987-3.847,7.987-8.592h-15.974 C198.751,197.567,202.327,201.414,206.738,201.414z"></path>
			<path class="col-obj" style="fill: rgb(17, 17, 17);" d="M206.738,197.118c2.206,0,3.994-1.923,3.994-4.296h-7.987 C202.745,195.194,204.533,197.118,206.738,197.118z"></path>
			<circle class="hair-col" style="fill: rgb(178, 156, 142);" cx="203.817" cy="195.744" r="1.373"></circle>
		</g>
		<g class="hexatar-eye-left">
			<path class="skin-col" style="opacity: 0.3; fill: rgb(242, 136, 133);" d="M305.235,212.838c-16.803,0-19.741-20.016-19.741-20.016h39.972 C325.466,192.822,322.038,212.838,305.235,212.838z"></path>
			<path class="white-obj" style="fill:#FFFFFF;" d="M305.235,208.451c-15.136,0-19.741-15.63-19.741-15.63h39.972 C325.466,192.822,320.371,208.451,305.235,208.451z"></path>
			<path class="shadow-obj" style="opacity: 0.3; fill: rgb(0, 0, 0);" d="M305.696,201.414c4.411,0,7.987-3.847,7.987-8.592h-15.974 C297.708,197.567,301.284,201.414,305.696,201.414z"></path>
			<path class="col-obj" style="fill: rgb(17, 17, 17);" d="M305.696,197.118c2.206,0,3.994-1.923,3.994-4.296h-7.987 C301.702,195.194,303.49,197.118,305.696,197.118z"></path>
			<circle class="hair-col-2x" style="fill: rgb(157, 129, 112);" cx="302.774" cy="195.744" r="1.373"></circle>
		</g>
	</g></g>
			<g id="hexatar-eyebrows" transform="matrix(1,0,0,1,0,5.25)"><g class="hexatar-base">
		<g class="hexatar-eyebrows-right" transform="matrix(1.2533,0,0,1.2533,-53.2231,-42.8548)"> 	<path class="col-obj" style="fill: rgb(178, 156, 142);" d="M177.94,175.889l13.191-2.825l44.548,4.564c3.596,0.426,6.563-2.776,5.866-6.33 l-1.646-8.383l-7.205,3.505l-33.753-6.147C191.657,160.784,184.534,172.754,177.94,175.889L177.94,175.889z"></path>
		</g>
		<g class="hexatar-eyebrows-left" transform="matrix(1.2533,0,0,1.2533,-76.6798,-42.8665)"> 	<path class="col-obj" style="fill: rgb(178, 156, 142);" d="M334.84,175.74l-13.188-2.678l-44.552,4.687 c-3.595,0.437-6.573-2.757-5.886-6.312l1.629-8.425l7.21,3.437l33.757-6.215C321.096,160.708,328.229,172.641,334.84,175.74 L334.84,175.74z"></path> 	<path class="shadow-obj" style="opacity: 0.4; fill: rgb(157, 129, 112);" d="M334.84,175.74l-13.188-2.678l-44.552,4.687 c-3.595,0.437-6.573-2.757-5.886-6.312l1.629-8.425l7.21,3.437l33.757-6.215C321.096,160.708,328.229,172.641,334.84,175.74 L334.84,175.74z"></path>
		</g>
	</g></g>	
		</g>
		<g id="hexatar-hair-front"></g>
		<g id="hexatar-hat"><g class="hexatar-base">
		<path class="col-obj" style="fill: rgb(102, 83, 0);" d="M331.696,11.157L286.554-1.292c-19.995-5.514-41.111-5.514-61.106,0l-45.143,12.449 c-10.879,3-18.306,22.754-17.997,34.035l0.063,2.302l-6.025,6.734c-2.577,2.88-4.096,6.552-4.308,10.411l-4.924,89.757L153,164.723 c0,0,28.335-49.574,101.994-49.574S359,165.387,359,165.387l5.885-10.992l-4.924-89.757c-0.212-3.859-1.731-7.53-4.308-10.411 l-6.024-6.734l0.063-2.302C350.002,33.911,342.575,14.157,331.696,11.157z"></path>
		<path class="shadow-obj" style="opacity: 0.4; fill: rgb(51, 42, 0);" d="M172.333,42.668c0,0,33.18-18.64,82.95-18.64 s81.649,15.841,81.649,15.841S311.541,19.48,255.546,19.48S172.333,42.668,172.333,42.668z"></path>
	</g></g>
		<g id="hexatar-eyeglasses"></g>
	</g>
	<desc>Avatar generated from Hexatar.com - created with Snap</desc><text transform="matrix(1 0 0 1 0 528)" font-size="12">Avatar generated from Hexatar.com</text></svg>