<svg width="512" height="512" id="hexatar-preview" version="1.1" xmlns="http://www.w3.org/2000/svg" xmlns:xlink="http://www.w3.org/1999/xlink" x="0px" y="0px" viewBox="0 0 512 512" style="enable-background:new 0 0 512 512;" xml:space="preserve">
    <g id="hexatar-background"><g class="hexatar-base">
		<rect class="col-obj" x="-0.003" y="0.002" style="fill: transparent;" width="512" height="512"></rect>
		<polygon class="shadow-obj" style="fill: transparent;" points="511.997,152.13 365.215,152.13 315.785,0.002 196.214,0.002  146.784,152.13 -0.003,152.13 -0.003,302.264 79.285,359.87 29.855,512.002 223.322,512.002 255.999,488.261 288.677,512.002  482.144,512.002 432.714,359.87 511.997,302.267"></polygon>
	</g></g>
	<g id="hexatar-hair-rear"></g>
	<g id="hexatar-bodies" transform="matrix(1.594,0,0,1.594,-152.0743,-251.1271)">
		<g id="hexatar-body">
			<polygon class="col-obj" style="fill: rgb(237, 186, 163);" points="380.515,465 301,451 301,334 211,334 211,451 131.636,465 94.115,512   418.035,512 "></polygon>
			<polygon class="shadow-obj" style="fill: rgb(229, 154, 120);" points="380.541,465 301,451 301,334 256,334 256,512 418.062,512 "></polygon>
			<polygon id="hexatar-neck-control" class="shadow-obj-2x" style="opacity: 0.5; fill: rgb(221, 122, 77);" points="301.054,387.482 255.998,427.693 210.942,384.615  210.942,333.485 301.054,333.485 "></polygon>
		</g>
		<g id="hexatar-clothes"><g class="hexatar-base">
		<path class="shadow-obj-2x" style="fill: rgb(104, 93, 60);" d="M346.448,403.978h-44.967l-0.458,7.478l12.481,31.903h47.454v-24.872 C360.957,410.474,354.461,403.978,346.448,403.978z M151.031,418.935v24.424h47.459l12.481-31.903v-7.478l-44.985,0.001 C157.727,403.979,151.031,410.675,151.031,418.935z"></path>
		<polygon class="static-obj" style="fill:#CCCCCC;" points="315.28,435.317 256.02,449.035 196.75,435.317 195.746,511.994  316.867,511.994"></polygon>
		<polygon class="static-obj" style="fill:#EC373D;" points="271.123,511.994 261.805,473.204 268.504,464.719 255.998,448.879  243.493,464.719 250.192,473.204 240.874,511.994"></polygon>
		<path class="static-obj" style="fill:#666666;" d="M129.466,462.994l-37.307,49h162.096l-57.505-76.678L129.466,462.994z M383.147,464.994l-67.866-29.678l-56.957,76.678h162.131L383.147,464.994z"></path>
		<path class="static-obj" style="opacity:0.3;fill:#494949;" d="M75.159,511.994L123.836,512l-11.37-47.006L75.159,511.994z M383.147,464.994L372.426,512l48.028-0.006L383.147,464.994z"></path>
		<polygon class="white-obj" style="fill:#FFFFFF;" points="229.079,484.336 256.02,449.035 284.359,484.336 315.28,435.317  301.023,411.456 301.023,425.901 256.019,449.001 210.971,425.697 211.014,411.456 196.75,435.317"></polygon>
		<path class="col-obj" style="fill: rgb(165, 150, 101);" d="M147.403,455.083l-35.16,9.912l-37.084,47h131.175v-41.747 c0-30.157-25.145-52.086-55.302-52.086L151,432.343L147.403,455.083z M399.755,464.994l-35.376-9.595L361,432.343l0-14.182 c-30.157,0-54.605,21.929-54.605,52.086v41.747h130.444L399.755,464.994z"></path>
	</g></g>
	</g>
	<g id="hexatar-faces">
		<g id="hexatar-ears"><g class="hexatar-base">
		<g class="hexatar-ears-right"> 	<polygon class="col-obj" style="fill: rgb(237, 186, 163);" points="172.062,168.76 172.062,238.392 127.687,238.392 109.255,203.576  127.687,168.76"></polygon> 	<polygon class="shadow-obj" style="fill: rgb(229, 154, 120);" points="137.955,219.998 129.261,203.576 137.955,187.154 172.062,187.154  172.062,219.998"></polygon>
		</g>
		<g class="hexatar-ears-left"> 	<polygon class="shadow-obj" style="fill: rgb(229, 154, 120);" points="340.163,238.392 340.163,168.76 382.976,168.76 401.408,203.576  382.976,238.392"></polygon> 	<polygon class="shadow-obj-2x" style="fill: rgb(221, 122, 77);" points="372.708,187.154 381.402,203.576 372.708,219.998  340.163,219.998 340.163,187.154"></polygon>
		</g>
	</g></g>
		<g id="hexatar-face"><g class="hexatar-base">
		<polygon class="col-obj" style="fill: rgb(237, 186, 163);" points="256.005,7.17 153.605,71.355 153.605,322.238 242.487,386.05  270.342,386.05 358.404,321.952 358.404,71.355"></polygon>
		<polygon class="shadow-obj" style="fill: rgb(229, 154, 120);" points="256.006,7.17 256.005,386.05 270.343,386.05 358.404,321.952  358.405,71.355"></polygon>
	</g></g>
		<g id="hexatar-mouth" transform="matrix(1.1823,0,0,1.1823,-46.7107,-57.4357)"><g class="hexatar-base">
		<polygon class="col-obj" style="fill: rgb(236, 163, 143);" points="233.557,315.915 279.12,315.915 272.349,328.151 240.328,328.151"></polygon>
		<path class="shadow-obj" style="fill: rgb(229, 127, 99);" d="M224.716,305.915l-5.52,10h37.143l-5.52-10H224.716z M287.962,305.915h-26.103 l-5.52,10h37.143L287.962,305.915z"></path>
	</g></g>
		<g id="hexatar-beard" transform="matrix(1,0,0,1,0,-64)"></g>
		<g id="hexatar-mustache"></g>
		<g id="hexatar-nose" transform="matrix(1,0,0,1,0,14)"><g class="hexatar-base">
		<polygon class="shadow-obj" style="fill: rgb(229, 154, 120);" points="273.806,239.281 262.701,172.435 249.3,172.435 238.196,239.281  232.482,239.281 227.055,255.459 233.14,256.886 237.108,254.618 250.825,264.281 260.963,264.281 274.253,255.561  278.008,257.916 284.946,255.459 279.519,239.281"></polygon>
		<polygon class="shadow-obj-2x" style="fill: rgb(221, 122, 77);" points="273.806,239.281 262.701,172.435 256.001,172.435 256.001,264.281  260.963,264.281 274.253,255.561 278.008,257.916 284.946,255.459 279.519,239.281"></polygon>
	</g></g>
		<g id="hexatar-eyeGroup">
			<g id="hexatar-eye" transform="matrix(1,0,0,1,0,7)"><g class="hexatar-base">
		<g class="hexatar-eye-right">
			<path class="white-obj" style="fill:#FFFFFF;" d="M225.6,192.786c-4.011-2.942-20.114-6.66-36.009-2.567l-3.081,3.851 c3.145,1.733,6.868,3.145,11.169,4.365c4.942,0.706,13.993,0.963,27.279,0.641c0,0,0.904,1.507,1.605,0.065 C227.141,198.691,225.6,193.235,225.6,192.786z"></path>
			<path class="shadow-obj" style="opacity: 0.3; fill: rgb(11, 26, 192);" d="M217.239,191.4c-0.074-0.662-0.232-1.292-0.436-1.898 l-7.654-1.495c-0.191-0.017-0.377-0.029-0.565-0.044l-8.983,1.039c-0.553,1.368-0.801,2.881-0.625,4.45 c0.28,2.496,1.538,4.643,3.345,6.109l11.896-0.279C216.363,197.366,217.585,194.478,217.239,191.4z"></path>
			<circle class="col-obj" style="fill: rgb(14, 33, 240);" cx="208.107" cy="192.427" r="4.756"></circle>
			<circle class="white-obj" style="fill:#FFFFFF;" cx="204.777" cy="195.349" r="2.958"></circle>
			<path class="hair-col" style="fill: rgb(140, 82, 51);" d="M233.559,195.097c-6.796-4.702-30.92-9.76-43.005-10.334l12.773,3.081 c-6.012-0.255-14.185,1.22-14.185,1.22l-3.402,5.905l4.942-4.301c5.328-1.22,11.104-1.797,17.203-1.605 c6.996,1.605,12.966,3.273,17.908,5.135c-0.065,0.321,0.193,2.054,0.641,5.134c0.45,0.321,0.771,0.129,0.963-0.706 c-0.257-2.503-0.45-3.915-0.514-4.364L233.559,195.097z"></path>
			<path class="skin-col" style="fill: rgb(221, 122, 77);" d="M192.223,196.958c0,0,8.793,5.115,28.628,2.118 C202.47,200.123,192.223,196.958,192.223,196.958z"></path>
		</g>
		<g class="hexatar-eye-left">
			<path class="white-obj" style="fill:#FFFFFF;" d="M287.213,199.141c0.701,1.442,1.605-0.065,1.605-0.065 c13.287,0.321,22.337,0.065,27.279-0.641c4.301-1.22,8.024-2.632,11.169-4.365l-3.081-3.851 c-15.896-4.093-31.998-0.374-36.009,2.567C288.176,193.235,286.636,198.691,287.213,199.141z"></path>
			<path class="shadow-obj" style="opacity: 0.3; fill: rgb(11, 26, 192);" d="M296.537,191.4c0.074-0.662,0.232-1.292,0.436-1.898l7.655-1.495 c0.191-0.017,0.377-0.029,0.565-0.044l8.983,1.039c0.553,1.368,0.801,2.881,0.625,4.45c-0.28,2.496-1.538,4.643-3.345,6.109 l-11.896-0.279C297.413,197.366,296.191,194.478,296.537,191.4z"></path>
			<circle class="col-obj" style="fill: rgb(14, 33, 240);" cx="305.669" cy="192.427" r="4.756"></circle>
			<circle class="white-obj" style="fill:#FFFFFF;" cx="308.999" cy="195.349" r="2.958"></circle>
			<path class="hair-col-2x" style="fill: rgb(103, 60, 37);" d="M324.634,189.063c0,0-8.173-1.474-14.185-1.22l12.773-3.081 c-12.085,0.575-36.209,5.632-43.005,10.334l6.675-0.835c-0.064,0.45-0.257,1.861-0.514,4.364 c0.193,0.835,0.514,1.027,0.963,0.706c0.449-3.081,0.706-4.813,0.642-5.134c4.943-1.862,10.912-3.531,17.908-5.135 c6.098-0.193,11.875,0.385,17.203,1.605l4.942,4.301L324.634,189.063z"></path>
			<path class="skin-col-2x" style="fill: rgb(207, 92, 40);" d="M292.926,199.076c17.5,2.917,28.628-2.118,28.628-2.118 C310.613,200.19,292.926,199.076,292.926,199.076z"></path>
		</g>
	</g></g>
			<g id="hexatar-eyebrows"><g class="hexatar-base">
		<g class="hexatar-eyebrows-right"> 	<path class="col-obj" style="fill: rgb(140, 82, 51);" d="M182.929,176.44l2.086,1.494v0c6.376-4.059,14.069-5.508,21.484-4.047 l11.602,2.286c6.636,1.307,13.257-2.321,15.726-8.618v0l-34.759,0.209C192.584,167.802,186.539,171.052,182.929,176.44 L182.929,176.44z"></path>
		</g>
		<g class="hexatar-eyebrows-left"> 	<path class="col-obj" style="fill: rgb(140, 82, 51);" d="M329.833,176.44l-2.086,1.494v0c-6.376-4.059-14.069-5.508-21.484-4.047 l-11.602,2.286c-6.636,1.307-13.257-2.321-15.727-8.618v0l34.759,0.209C320.179,167.802,326.224,171.052,329.833,176.44 L329.833,176.44z"></path> 	<path class="shadow-obj" style="opacity: 0.4; fill: rgb(103, 60, 37);" d="M329.833,176.44l-2.086,1.494v0c-6.376-4.059-14.069-5.508-21.484-4.047 l-11.602,2.286c-6.636,1.307-13.257-2.321-15.727-8.618v0l34.759,0.209C320.179,167.802,326.224,171.052,329.833,176.44 L329.833,176.44z"></path>
		</g>
	</g></g>	
		</g>
		<g id="hexatar-hair-front"><g class="element-front">
			<polygon class="col-obj" style="fill: rgb(41, 56, 85);" points="256.26,6.947 153.607,71.356 153.607,175.3 172.52,175.3  172.982,154.138 281.914,111.457 258.029,152.504 339.494,72.543 339.494,175.3 358.406,175.3 358.407,71.356"></polygon>
			<polygon class="shadow-obj" style="opacity: 0.4; fill: rgb(24, 33, 51);" points="256.26,7.126 256.26,121.475 281.452,111.642 258.029,152.504  339.494,72.543 339.494,175.3 358.406,175.3 358.407,71.356"></polygon>
		</g></g>
		<g id="hexatar-hat"></g>
		<g id="hexatar-eyeglasses"><g class="hexatar-base">
		<g class="hexatar-eyeglasses-right">
			<path class="col-obj" style="opacity: 0.5; fill: rgb(17, 17, 17);" d="M246.849,187.391c0,9.769-27.713,47.406-57.119,47.406 c-16.924,0-21.79-17.922-19.251-32.953c2.539-15.031,13.539-27.172,41.041-27.172S246.849,181.032,246.849,187.391z"></path>
			<path class="white-obj" style="opacity:0.2;fill:#FFFFFF;" d="M180.906,220.014c-1.512,0-2.957-0.06-4.34-0.171 c2.44,6.439,7.38,11.171,15.507,11.171c16.406,0,32.198-13.399,41.485-25.316C218.694,213.598,200.044,220.014,180.906,220.014z"></path>
			<path class="static-obj" d="M256,174.726h-27.995v0.37c-5.695-0.817-11.673-1.042-16.485-1.042 c-16.293,0-36.353,4.475-41.229,25.324h-6.675c-0.515,0-0.933,0.381-0.933,0.85c0,0.469,0.418,0.85,0.933,0.85h6.324 c-0.042,0.226-0.093,0.442-0.132,0.672c-1.49,8.826-0.668,20.82,6.109,28.017c3.53,3.748,8.178,5.649,13.813,5.649 c17.312,0,32.548-12.682,40.089-20.242c10.321-10.347,16.768-21.232,17.608-26.663c0,0,0.312-1.35,1.513-2.526 c1.326-1.298,3.327-1.983,7.059-1.983v-1.7c-3.733,0-6.713,0.85-8.425,2.525c-0.131,0.128-0.231,0.258-0.342,0.387 c-1.224-4.432-6.209-7.147-12.463-8.787H256V174.726z M246.16,187.095c0.071,0.833-0.124,1.505-0.124,1.505 c-0.938,5.199-7.336,15.831-17.223,25.741c-7.39,7.408-22.295,19.837-39.084,19.837c-5.221,0-9.521-1.756-12.782-5.217 c-6.478-6.878-7.243-18.469-5.798-27.023c0.052-0.306,0.114-0.603,0.172-0.904c0.395-0.099,0.692-0.414,0.692-0.806 c0-0.276-0.154-0.51-0.378-0.665c3.778-16.105,17.176-24.272,39.884-24.272c6.679,0,12.094,0.373,16.485,1.002l0.871,0.134 C243.121,178.646,246.01,183.649,246.16,187.095z"></path>
		</g>
		<g class="hexatar-eyeglasses-left">
			<path class="col-obj" style="opacity: 0.5; fill: rgb(17, 17, 17);" d="M265.151,187.391c0,9.769,27.713,47.406,57.119,47.406 c16.924,0,21.79-17.922,19.251-32.953c-2.539-15.031-13.539-27.172-41.041-27.172S265.151,181.032,265.151,187.391z"></path>
			<path class="shadow-obj" style="opacity: 0.4; fill: rgb(0, 0, 0);" d="M265.151,187.391c0,9.769,27.713,47.406,57.119,47.406 c16.924,0,21.79-17.922,19.251-32.953c-2.539-15.031-13.539-27.172-41.041-27.172S265.151,181.032,265.151,187.391z"></path>
			<path class="white-obj" style="opacity:0.1;fill:#FFFFFF;" d="M332.943,220.014c1.512,0,2.957-0.06,4.34-0.171 c-2.44,6.439-7.38,11.171-15.507,11.171c-16.406,0-32.198-13.399-41.485-25.316C295.155,213.598,313.804,220.014,332.943,220.014 z"></path>
			<path class="static-obj" d="M256,176.426h21.23c-6.254,1.64-11.239,4.355-12.463,8.787c-0.111-0.129-0.211-0.26-0.342-0.387 c-1.712-1.675-4.692-2.525-8.425-2.525v1.7c3.733,0,5.733,0.686,7.059,1.983c1.202,1.175,1.513,2.526,1.513,2.526 c0.84,5.431,7.287,16.316,17.608,26.663c7.541,7.56,22.777,20.242,40.089,20.242c5.635,0,10.283-1.901,13.813-5.649 c6.777-7.196,7.6-19.191,6.109-28.017c-0.039-0.229-0.09-0.446-0.132-0.672h6.324c0.515,0,0.933-0.381,0.933-0.85 c0-0.469-0.418-0.85-0.933-0.85h-6.675c-4.877-20.849-24.936-25.324-41.229-25.324c-4.813,0-10.79,0.225-16.485,1.042v-0.37H256 V176.426z M283.124,176.426l0.871-0.134c4.391-0.628,9.806-1.002,16.485-1.002c22.708,0,36.106,8.167,39.884,24.272 c-0.224,0.155-0.378,0.389-0.378,0.665c0,0.392,0.297,0.707,0.692,0.806c0.058,0.301,0.121,0.598,0.172,0.904 c1.444,8.554,0.68,20.144-5.798,27.023c-3.261,3.462-7.561,5.217-12.782,5.217c-16.789,0-31.694-12.429-39.084-19.837 c-9.886-9.911-16.285-20.542-17.223-25.741c0,0-0.121-0.632-0.124-1.505C265.99,183.649,268.879,178.646,283.124,176.426z"></path>
		</g>
	</g></g>
	</g>
	<desc>Avatar generated from Hexatar.com - created with Snap</desc><text transform="matrix(1 0 0 1 0 528)" font-size="12">Avatar generated from Hexatar.com</text></svg>