<svg width="512" height="512" id="hexatar-preview" version="1.1" xmlns="http://www.w3.org/2000/svg" xmlns:xlink="http://www.w3.org/1999/xlink" x="0px" y="0px" viewBox="0 0 512 512" style="enable-background:new 0 0 512 512;" xml:space="preserve">
    <g id="hexatar-background"><g class="hexatar-base">
		<rect class="col-obj" x="-0.003" y="0.002" style="fill: transparent;" width="512" height="512"></rect>
		<path class="shadow-obj" style="opacity: 0.9; fill: transparent;" d="M429.388,372.456l-57.801,44l-57.8-44.001l-57.797,44l-57.799-44 l-57.8,44l-57.798-44l-57.799,44l-24.797-18.877V420.2l24.797,18.878l57.799-44l57.798,44l57.8-44l57.799,44l57.797-44 l57.8,43.999l57.801-44l57.804,44l24.805-18.881v-22.621l-24.805,18.881L429.388,372.456z M429.388,257.245l-57.801,44 l-57.8-44.001l-57.797,44l-57.799-44l-57.8,44l-57.798-44l-57.799,44l-24.797-18.877v22.623l24.797,18.878l57.799-44l57.798,44 l57.8-44l57.799,44l57.797-44l57.8,43.999l57.801-44l57.804,44l24.805-18.881v-22.621l-24.805,18.881L429.388,257.245z M487.192,61.711l-57.804-44l-57.801,44l-57.8-44l-57.797,44l-57.799-44l-57.8,44l-57.798-44l-57.799,44L-0.003,42.833v22.622 l24.797,18.877l57.799-44l57.798,44l57.8-44l57.799,44l57.797-44l57.8,44l57.801-44l57.804,44l24.805-18.881V42.829 L487.192,61.711z M429.388,132.921l-57.801,44l-57.8-44l-57.797,44l-57.799-44l-57.8,44l-57.798-44l-57.799,44l-24.797-18.878 v22.622l24.797,18.877l57.799-44l57.798,44l57.8-44l57.799,44l57.797-44l57.8,44l57.801-44l57.804,44l24.805-18.881V158.04 l-24.805,18.882L429.388,132.921z"></path>
		<path class="light-obj" style="fill: transparent;" d="M429.388,429.824l-57.801,44l-57.8-44.001l-57.797,44l-57.799-44l-57.8,44 l-57.798-44l-57.799,44l-24.797-18.877v22.623l24.797,18.878l57.799-44l57.798,44l57.8-44l57.799,44l57.797-44l57.8,43.999 l57.801-44l57.804,44l24.805-18.881v-22.621l-24.805,18.881L429.388,429.824z M429.388,314.613l-57.801,44l-57.8-44.001 l-57.797,44l-57.799-44l-57.8,44l-57.798-44l-57.799,44l-24.797-18.877v22.623l24.797,18.878l57.799-44l57.798,44l57.8-44 l57.799,44l57.797-44l57.8,43.999l57.801-44l57.804,44l24.805-18.881v-22.621l-24.805,18.881L429.388,314.613z M487.192,119.079 l-57.804-44l-57.801,44l-57.8-44l-57.797,44l-57.799-44l-57.8,44l-57.798-44l-57.799,44l-24.797-18.878v22.622l24.797,18.877 l57.799-44l57.798,44l57.8-44l57.799,44l57.797-44l57.8,44l57.801-44l57.804,44l24.805-18.881v-22.621L487.192,119.079z M429.388,190.289l-57.801,44l-57.8-44l-57.797,44l-57.799-44l-57.8,44l-57.798-44l-57.799,44l-24.797-18.878v22.622 l24.797,18.877l57.799-44l57.798,44l57.8-44l57.799,44l57.797-44l57.8,44l57.801-44l57.804,44l24.805-18.881v-22.621 l-24.805,18.882L429.388,190.289z"></path>
	</g></g>
	<g id="hexatar-hair-rear"></g>
	<g id="hexatar-bodies">
		<g id="hexatar-body">
			<polygon class="col-obj" style="fill: rgb(247, 207, 179);" points="380.515,465 301,451 301,334 211,334 211,451 131.636,465 94.115,512   418.035,512 "></polygon>
			<polygon class="shadow-obj" style="fill: rgb(242, 178, 133);" points="380.541,465 301,451 301,334 256,334 256,512 418.062,512 "></polygon>
			<polygon id="hexatar-neck-control" class="shadow-obj-2x" style="opacity: 0.5; fill: rgb(237, 149, 87);" points="301.054,387.482 255.998,427.693 210.942,384.615  210.942,333.485 301.054,333.485 "></polygon>
		</g>
		<g id="hexatar-clothes"><g class="hexatar-base">
		<polygon class="col-obj" style="fill: rgb(252, 236, 44);" points="382.755,464.994 327.838,443.335 256.039,473.857 184.168,443.335  129.243,464.994 92.159,511.994 419.839,511.994"></polygon>
		<path class="shadow-obj" style="opacity: 0.4; fill: rgb(242, 223, 3);" d="M92.159,511.994L140.836,512l-11.37-47.006L92.159,511.994z M383.147,464.994L372.426,512l48.028-0.006L383.147,464.994z"></path>
		<polygon class="white-obj" style="fill:#FFFFFF;" points="320.755,426.47 301.023,426.47 301.023,446.694 256.019,473.857  210.971,446.489 211.014,426.47 191.282,426.47 182.739,443.064 221.607,510.26 256.02,473.891 293.495,510.263 329.298,443.064"></polygon>
		<path class="static-obj" style="opacity:0.8;fill:#CCCCCC;" d="M301.055,435.159l-0.143,11.644l14.491-11.644H301.055z M195.803,435.159l15.168,11.381l-0.028-11.381H195.803z"></path>
	</g></g>
	</g>
	<g id="hexatar-faces">
		<g id="hexatar-ears"><g class="hexatar-base">
		<g class="hexatar-ears-right"> 	<polygon class="col-obj" style="fill: rgb(247, 207, 179);" points="172.062,168.76 172.062,238.392 127.687,238.392 109.255,203.576  127.687,168.76"></polygon> 	<polygon class="shadow-obj" style="fill: rgb(242, 178, 133);" points="137.955,219.998 129.261,203.576 137.955,187.154 172.062,187.154  172.062,219.998"></polygon>
		</g>
		<g class="hexatar-ears-left"> 	<polygon class="shadow-obj" style="fill: rgb(242, 178, 133);" points="340.163,238.392 340.163,168.76 382.976,168.76 401.408,203.576  382.976,238.392"></polygon> 	<polygon class="shadow-obj-2x" style="fill: rgb(237, 149, 87);" points="372.708,187.154 381.402,203.576 372.708,219.998  340.163,219.998 340.163,187.154"></polygon>
		</g>
	</g></g>
		<g id="hexatar-face"><g class="hexatar-base">
		<polygon class="col-obj" style="fill: rgb(247, 207, 179);" points="256.005,7.17 153.605,71.355 153.605,197.981 153.605,251.292  150.643,271.056 142.59,324.781 216.444,386.05 296.385,386.05 369.419,324.781 358.404,251.007 358.404,195.624 358.404,71.355"></polygon>
		<polygon class="shadow-obj" style="fill: rgb(242, 178, 133);" points="256.006,7.17 256.005,386.05 296.385,386.05 369.42,324.781  358.404,251.007 358.405,195.624 358.405,71.355"></polygon>
	</g></g>
		<g id="hexatar-mouth"><g class="hexatar-base">
		<polygon class="col-obj" style="fill: rgb(251, 157, 146);" points="227.767,319.506 284.91,319.506 279.39,344.139 233.287,344.139"></polygon>
		<path class="shadow-obj" style="fill: rgb(249, 113, 97);" d="M223.53,312.43l-4.351,7.076h37.159l-5.52-15.804L223.53,312.43z M289.147,312.43l-27.289-8.728l-5.52,15.804h37.159L289.147,312.43z"></path>
	</g></g>
		<g id="hexatar-beard"></g>
		<g id="hexatar-mustache"></g>
		<g id="hexatar-nose"><g class="hexatar-base">
		<polygon class="shadow-obj" style="fill: rgb(242, 178, 133);" points="267.646,179.801 244.355,179.801 238.358,225.092 219.412,240.431  223.454,256.052 249.96,266.197 261.621,266.197 289.779,256.052 292.589,240.431 273.643,225.092"></polygon>
		<polygon class="shadow-obj-2x" style="fill: rgb(237, 149, 87);" points="267.646,179.801 256.001,179.801 256.001,266.197 261.621,266.197  289.779,256.052 292.589,240.431 273.643,225.092"></polygon>
	</g></g>
		<g id="hexatar-eyeGroup">
			<g id="hexatar-eye"><g class="hexatar-base">
		<g class="hexatar-eye-right">
			<path class="white-obj" style="fill:#FFFFFF;" d="M227.893,193.682c-18.686-5.696-37.597-0.574-37.597-0.574l-1.991,3.383 c0,0,3.108,6.76,14.469,8.109c10.611,0.848,25.694-2.217,25.694-2.217l0.657,0.411c0.492,0.164,0.821,0,0.985-0.411 C230.273,201.891,228.549,194.667,227.893,193.682z"></path>
			<path class="shadow-obj" style="opacity: 0.3; fill: rgb(117, 220, 204);" d="M199.087,191.691c-0.004,0.152-0.031,0.299-0.028,0.453 c0.119,5.425,4.614,9.727,10.039,9.608s9.727-4.614,9.608-10.039c-0.001-0.069-0.01-0.135-0.013-0.204 C210.77,191.082,204.235,191.135,199.087,191.691z"></path>
			<path class="col-obj" style="fill: rgb(158, 230, 219);" d="M213.727,191.298c-3.292-0.098-6.299-0.096-9.03,0.004 c-0.041,0.237-0.08,0.474-0.084,0.722c-0.038,2.537,1.988,4.625,4.525,4.663c2.537,0.038,4.625-1.988,4.663-4.525 C213.805,191.866,213.776,191.578,213.727,191.298z"></path>
			<circle class="white-obj" style="fill:#FFFFFF;" cx="205.201" cy="195.16" r="2.857"></circle>
			<path class="hair-col" style="fill: rgb(195, 153, 107);" d="M232.407,195.734l-3.858-2.134c0,0-3.536-6.876-8.454-10.261 c0,0-11.211-0.405-15.761,0.739c7.942-0.314,15.761,0.575,15.761,0.575c2.704,1.076,6.074,7.962,6.074,7.962 s-16.367-5.381-36.201,0.329l-4.048,6.812l5.115-5.417c8.024-2.942,22.607-3.854,36.202-0.082l3.366,8.291l-1.889-7.799 L232.407,195.734z"></path>
			<path class="skin-col" style="fill: rgb(237, 149, 87);" d="M192.486,201.458c12.716,7.538,32.698,1.5,32.698,1.5 S202.74,206.141,192.486,201.458z"></path>
		</g>
		<g class="hexatar-eye-left">
			<path class="white-obj" style="fill:#FFFFFF;" d="M284.461,202.383c0.164,0.411,0.493,0.575,0.985,0.411l0.657-0.411 c0,0,15.083,3.065,25.694,2.217c11.361-1.349,14.469-8.109,14.469-8.109l-1.991-3.383c0,0-18.911-5.122-37.597,0.574 C286.021,194.667,284.297,201.891,284.461,202.383z"></path>
			<path class="shadow-obj" style="opacity: 0.3; fill: rgb(117, 220, 204);" d="M315.483,191.691c0.004,0.152,0.031,0.299,0.028,0.453 c-0.119,5.425-4.614,9.727-10.039,9.608s-9.727-4.614-9.608-10.039c0.001-0.069,0.01-0.135,0.013-0.204 C303.8,191.082,310.335,191.135,315.483,191.691z"></path>
			<path class="col-obj" style="fill: rgb(158, 230, 219);" d="M300.843,191.298c3.292-0.098,6.299-0.096,9.03,0.004 c0.041,0.237,0.08,0.474,0.084,0.722c0.038,2.537-1.988,4.625-4.525,4.663c-2.537,0.038-4.625-1.988-4.663-4.525 C300.765,191.866,300.794,191.578,300.843,191.298z"></path>
			<circle class="white-obj" style="fill:#FFFFFF;" cx="309.369" cy="195.16" r="2.857"></circle>
			<path class="hair-col-2x" style="fill: rgb(179, 128, 72);" d="M324.602,192.943c-19.834-5.71-36.201-0.329-36.201-0.329 s4.079-6.656,6.074-7.962c0,0,6.293-0.811,15.761-0.575c-4.55-1.144-15.761-0.739-15.761-0.739 c-4.919,3.385-8.454,10.261-8.454,10.261l-3.858,2.134l3.694-0.985l-1.889,7.799l3.366-8.291 c13.595-3.773,28.178-2.86,36.202,0.082l5.115,5.417L324.602,192.943z"></path>
			<path class="skin-col-2x" style="fill: rgb(232, 120, 41);" d="M289.386,202.958c0,0,19.982,6.038,32.698-1.5 C311.83,206.141,289.386,202.958,289.386,202.958z"></path>
		</g>
	</g></g>
			<g id="hexatar-eyebrows"><g class="hexatar-base">
		<g class="hexatar-eyebrows-right"> 	<polygon class="col-obj" style="fill: rgb(195, 153, 107);" points="184.224,184.431 233.828,184.431 233.828,174.262 188.7,174.262"></polygon>
		</g>
		<g class="hexatar-eyebrows-left"> 	<polygon class="col-obj" style="fill: rgb(195, 153, 107);" points="327.845,184.431 284.669,184.431 284.669,174.262 323.369,174.262"></polygon> 	<polygon class="shadow-obj" style="opacity: 0.4; fill: rgb(179, 128, 72);" points="327.845,184.431 284.669,184.431 284.669,174.262 323.369,174.262"></polygon>
		</g>
	</g></g>	
		</g>
		<g id="hexatar-hair-front"><g class="element-front">
			<polygon class="col-obj" style="fill: rgb(201, 143, 26);" points="256.211,6.901 153.602,70.984 153.602,175.3 172.582,175.3  172.582,80.4 309.162,106.291 339.49,73.22 339.49,175.3 358.403,175.3 358.403,70.984"></polygon>
			<polygon class="col-obj hair-ext" style="fill: rgb(201, 143, 26); display: block;" points="139.876,39.763 154.468,72.834 256.211,6.901"></polygon>
			<polygon class="shadow-obj" style="opacity: 0.4; fill: rgb(156, 111, 20);" points="256.211,6.901 256.211,96.253 309.162,106.291 339.49,73.22  339.49,175.3 358.403,175.3 358.403,70.984"></polygon>
		</g></g>
		<g id="hexatar-hat"></g>
		<g id="hexatar-eyeglasses"></g>
	</g>
	<desc>Avatar generated from Hexatar.com - created with Snap</desc><text transform="matrix(1 0 0 1 0 528)" font-size="12">Avatar generated from Hexatar.com</text></svg>