<svg width="512" height="512" id="hexatar-preview" version="1.1" xmlns="http://www.w3.org/2000/svg" xmlns:xlink="http://www.w3.org/1999/xlink" x="0px" y="0px" viewBox="0 0 512 512" style="enable-background:new 0 0 512 512;" xml:space="preserve">
    <g id="hexatar-background"><g class="hexatar-base">
		<rect class="col-obj" x="-0.003" y="0.002" style="fill: transparent;" width="512" height="512"></rect>
		<circle class="shadow-obj" style="opacity: 0.8; fill: transparent;" cx="255.997" cy="256.002" r="194.961"></circle>
	</g></g>
	<g id="hexatar-hair-rear"><g class="element-rear">
			<path class="col-obj" style="fill: rgb(131, 34, 34);" d="M398.965,397.366c15.308-9.487,25.508-26.431,25.508-45.764 c0-24.218-16.001-44.695-38.006-51.447c12.299-9.862,20.183-25.004,20.183-41.995c0-27.839-21.141-50.739-48.244-53.524v-66.308 H153.608v66.294c-27.172,2.719-48.388,25.65-48.388,53.538c0,16.991,7.883,32.133,20.183,41.995 c-22.005,6.752-38.006,27.229-38.006,51.447c0,19.333,10.201,36.277,25.508,45.764c-21.564,7.014-37.156,27.266-37.156,51.17 c0,29.719,24.092,53.81,53.81,53.81c20.815,0,231.937,0,252.752,0c29.719,0,53.81-24.092,53.81-53.81 C436.12,424.632,420.529,404.38,398.965,397.366z"></path>
			<path class="shadow-obj" style="opacity: 0.4; fill: rgb(90, 23, 23);" d="M398.965,397.366c15.308-9.487,25.508-26.431,25.508-45.764 c0-24.218-16.001-44.695-38.006-51.447c12.299-9.862,20.183-25.004,20.183-41.995c0-27.839-21.141-50.739-48.244-53.524v-66.308 H256v364.018h126.31c29.719,0,53.81-24.092,53.81-53.81C436.12,424.632,420.529,404.38,398.965,397.366z"></path>
			<g class="hair-ext" style="display: block;">
				<path class="col-obj" style="fill: rgb(131, 34, 34);" d="M179.561,96.4c-29.719,0-53.81,24.092-53.81,53.81s24.092,53.81,53.81,53.81 s53.81-24.092,53.81-53.81S209.279,96.4,179.561,96.4z M323.315,102.638c-32.087,0-58.099,26.012-58.099,58.099 c0,32.087,26.012,58.099,58.099,58.099c32.087,0,58.099-26.012,58.099-58.099C381.414,128.649,355.403,102.638,323.315,102.638z"></path>
				<circle class="shadow-obj" style="opacity: 0.4; fill: rgb(90, 23, 23);" cx="323.315" cy="160.737" r="58.099"></circle>
			</g>
		</g></g>
	<g id="hexatar-bodies">
		<g id="hexatar-body">
			<polygon class="col-obj" style="fill: rgb(249, 211, 151);" points="380.515,465 301,451 301,334 211,334 211,451 131.636,465 94.115,512   418.035,512 "></polygon>
			<polygon class="shadow-obj" style="fill: rgb(246, 191, 103);" points="380.541,465 301,451 301,334 256,334 256,512 418.062,512 "></polygon>
			<polygon id="hexatar-neck-control" class="shadow-obj-2x" style="opacity: 0.5; fill: rgb(243, 171, 55);" points="301.054,387.482 255.998,427.693 210.942,384.615  210.942,333.485 301.054,333.485 "></polygon>
		</g>
		<g id="hexatar-clothes"><g class="hexatar-base">
		<path class="col-obj" style="fill: rgb(252, 236, 44);" d="M382.755,464.994l-48.753-9.735c0,0-23.766,47.97-77.962,47.97 s-76.227-48.583-76.227-48.583l-50.569,10.348l-9.388,47h272.527L382.755,464.994z"></path>
		<path class="shadow-obj" style="opacity: 0.8; fill: rgb(242, 223, 3);" d="M256.039,503.229c-54.196,0-76.227-48.583-76.227-48.583 l-12.29,2.515c6.346,11.708,33.281,54.421,88.503,54.421c55.366,0,83.83-42.393,90.498-53.822l-12.521-2.5 C334.001,455.259,310.235,503.229,256.039,503.229z M119.855,511.994h10.095l10.281-49.248l-10.987,2.248L119.855,511.994z M382.755,464.994l-10.456-2.088c2.285,11.293,6.293,32.024,9.57,49.088h10.513L382.755,464.994z"></path>
	</g></g>
	</g>
	<g id="hexatar-faces">
		<g id="hexatar-ears"><g class="hexatar-base">
		<g class="hexatar-ears-right"> 	<polygon class="col-obj" style="fill: rgb(249, 211, 151);" points="172.062,157.705 172.062,249.447 127.687,249.447 109.255,182.563  127.687,157.705"></polygon> 	<polygon class="shadow-obj" style="fill: rgb(246, 191, 103);" points="172.062,172.337 172.062,234.815 139.829,234.815 127.277,189.266  139.829,172.337"></polygon>
		</g>
		<g class="hexatar-ears-left"> 	<polygon class="shadow-obj" style="fill: rgb(246, 191, 103);" points="339.621,249.447 339.621,157.705 382.976,157.705 401.408,182.563  382.976,249.447"></polygon> 	<polygon class="shadow-obj-2x" style="fill: rgb(243, 171, 55);" points="339.621,234.836 339.621,172.316 369.166,172.316  381.727,189.256 369.166,234.836"></polygon>
		</g>
	</g></g>
		<g id="hexatar-face"><g class="hexatar-base">
		<path class="col-obj" style="fill: rgb(249, 211, 151);" d="M255.986,7.171l-102.4,64.185l0,215.98c0,21.911,10.554,42.48,28.353,55.259 l56.415,40.502c2.676,1.921,5.886,2.954,9.18,2.954h17.668c3.329,0,6.572-1.055,9.263-3.014l55.927-40.708 c17.589-12.802,27.993-33.244,27.993-54.999l0-215.974L255.986,7.171z"></path>
		<path class="shadow-obj" style="fill: rgb(246, 191, 103);" d="M255.986,7.171l-0.001,378.88h9.216c3.329,0,6.572-1.055,9.263-3.014 l55.928-40.708c17.589-12.802,27.993-33.244,27.993-54.999l0-215.974L255.986,7.171z"></path>
	</g></g>
		<g id="hexatar-mouth"><g class="hexatar-base">
		<path class="col-obj" style="fill: rgb(159, 104, 119);" d="M220.507,313.084h71.666l-13.841,16.633c-2.739,3.291-6.799,5.195-11.081,5.195 h-21.822c-4.282,0-8.342-1.904-11.081-5.195L220.507,313.084z"></path>
		<path class="shadow-obj" style="fill: rgb(130, 82, 95);" d="M257.748,304.374l-1.408,2.006l-1.408-2.007 c-2.98-4.248-8.134-6.408-13.253-5.555l-6.435,1.073c-2.481,0.414-4.764,1.608-6.519,3.41l-9.528,9.783h74.285l-10.247-10.059 c-1.73-1.698-3.94-2.822-6.33-3.221l-5.903-0.985C265.883,297.965,260.728,300.126,257.748,304.374z"></path>
	</g></g>
		<g id="hexatar-beard"></g>
		<g id="hexatar-mustache"></g>
		<g id="hexatar-nose"><g class="hexatar-base">
		<polygon class="shadow-obj" style="fill: rgb(246, 191, 103);" points="271.118,238.727 265.131,212.637 271.667,180.775 240.334,180.775  246.87,212.637 240.883,238.727 236.032,238.727 231.425,252.463 237.569,257.069 240.677,256.214 249.857,266.281  256.001,266.281 262.145,266.281 271.325,256.214 274.433,257.069 280.577,252.463 275.969,238.727"></polygon>
		<polygon class="shadow-obj-2x" style="fill: rgb(243, 171, 55);" points="271.118,238.727 265.131,212.637 271.667,180.775 256.001,180.775  256.001,266.281 262.145,266.281 271.325,256.214 274.433,257.069 280.577,252.463 275.969,238.727"></polygon>
	</g></g>
		<g id="hexatar-eyeGroup">
			<g id="hexatar-eye"><g class="hexatar-base">
		<g class="hexatar-eye-right">
			<path class="white-obj" style="fill:#FFFFFF;" d="M228.227,199.696c0,0-0.085-8.325-2.842-11.454 c-12.502-3.883-27.715-1.712-32.493,0c-2.452,4.164-2.517,5.234-2.517,5.234s1.08,8.351,15.032,8.953 c13.952,0.602,20.879-1.87,20.879-1.87S228.123,202.216,228.227,199.696z"></path>
			<circle class="shadow-obj" style="opacity: 0.3; fill: rgb(161, 183, 38);" cx="210.675" cy="193.583" r="7.994"></circle>
			<circle class="col-obj" style="fill: rgb(190, 214, 58);" cx="210.675" cy="193.583" r="4.137"></circle>
			<circle class="white-obj" style="fill:#FFFFFF;" cx="207.778" cy="196.126" r="2.573"></circle>
			<path class="hair-col" style="fill: rgb(44, 52, 45);" d="M229.739,190.196c-5.162-4.126-17.609-8.038-37.205-2.447 c0,0-2.345,3.347-9.355,3.815c2.317,0.966,4.519,1.003,6.656,0.126c-1.474,1.885-4.38,3.43-8.743,4.696 c3.886,0.36,11.976-0.193,14.025-6.94c0.039-0.059,18.481-6.134,30.089-0.545c2.158,5.326,3.167,8.924,3.022,10.795 c0.432-2.23-0.143-5.685-1.727-10.363C227.652,189.55,228.732,189.838,229.739,190.196z"></path>
			<path class="skin-col" style="fill: rgb(243, 171, 55);" d="M194.778,200.289c2.23,1.078,12.904,6.514,28.628,0.775 C213.135,204.666,196.937,200.936,194.778,200.289z"></path>
		</g>
		<g class="hexatar-eye-left">
			<path class="white-obj" style="fill:#FFFFFF;" d="M285.892,199.696c0,0,0.085-8.325,2.842-11.454 c12.502-3.883,27.715-1.712,32.493,0c2.452,4.164,2.517,5.234,2.517,5.234s-1.08,8.351-15.032,8.953 c-13.952,0.602-20.879-1.87-20.879-1.87S285.996,202.216,285.892,199.696z"></path>
			<circle class="shadow-obj" style="opacity: 0.3; fill: rgb(161, 183, 38);" cx="303.444" cy="193.583" r="7.994"></circle>
			<circle class="col-obj" style="fill: rgb(190, 214, 58);" cx="303.444" cy="193.583" r="4.137"></circle>
			<circle class="white-obj" style="fill:#FFFFFF;" cx="300.371" cy="196.126" r="2.573"></circle>
			<path class="hair-col-2x" style="fill: rgb(21, 24, 21);" d="M287.618,189.333c-1.583,4.678-2.158,8.133-1.727,10.363 c-0.145-1.87,0.863-5.468,3.022-10.795c7.628-2.447,22.903-2.197,29.883,0.033c0.038,0.059,4.947,8.463,14.23,7.452 c-4.363-1.266-7.269-2.811-8.743-4.696c2.137,0.877,4.339,0.84,6.656-0.126c-7.01-0.467-9.355-3.815-9.355-3.815 c-19.596-5.591-32.043-1.679-37.205,2.447C285.387,189.838,286.467,189.55,287.618,189.333z"></path>
			<path class="skin-col-2x" style="fill: rgb(233, 149, 14);" d="M290.713,201.064c15.724,5.739,26.397,0.303,28.628-0.775 C317.182,200.936,300.984,204.666,290.713,201.064z"></path>
		</g>
	</g></g>
			<g id="hexatar-eyebrows"><g class="hexatar-base">
		<g class="hexatar-eyebrows-right"> 	<path class="col-obj" style="fill: rgb(44, 52, 45);" d="M182.905,167.553l10.957-3.576l10.134,3.022l3.458,1.732 c6.944,3.477,14.489,5.593,22.228,6.233l2.253,0.186l0,0c-1.587-5.55-6.403-9.567-12.147-10.135l-3.113-0.308l-0.753-0.276 c-7.834-2.874-16.175-4.111-24.506-3.636h0L182.905,167.553z"></path>
		</g>
		<g class="hexatar-eyebrows-left"> 	<path class="col-obj" style="fill: rgb(44, 52, 45);" d="M329.858,167.553l-10.957-3.576l-10.134,3.022l-3.458,1.732 c-6.944,3.477-14.489,5.593-22.228,6.233l-2.253,0.186l0,0c1.587-5.55,6.403-9.567,12.147-10.135l3.113-0.308l0.753-0.276 c7.834-2.874,16.175-4.111,24.506-3.636h0L329.858,167.553z"></path> 	<path class="shadow-obj" style="opacity: 0.4; fill: rgb(21, 24, 21);" d="M329.858,167.553l-10.957-3.576l-10.134,3.022l-3.458,1.732 c-6.944,3.477-14.489,5.593-22.228,6.233l-2.253,0.186l0,0c1.587-5.55,6.403-9.567,12.147-10.135l3.113-0.308l0.753-0.276 c7.834-2.874,16.175-4.111,24.506-3.636h0L329.858,167.553z"></path>
		</g>
	</g></g>	
		</g>
		<g id="hexatar-hair-front"><g class="element-front">
			<path class="col-obj" style="fill: rgb(131, 34, 34);" d="M256.008,7.172L152.64,71.357l-0.02,97.404h12.473V80.841 c66.982-59.842,83.08,93.806,180.803,68.958v18.962h12.492l0.02-97.404L256.008,7.172z"></path>
			<path class="shadow-obj" style="opacity: 0.4; fill: rgb(90, 23, 23);" d="M256.008,7.172l-0.004,0.003v108.364 c45.041,51.331,89.892,34.261,89.892,34.261v18.916h12.492l0.02-97.358L256.008,7.172z"></path>
			<g class="hair-ext" style="display: block;">
				<path class="col-obj" style="fill: rgb(131, 34, 34);" d="M256.011,7.173c-68.726-20.981-116.389,48.733-116.389,112.772 c0,17.426,3.863,33.942,10.751,48.769h3.215v0.046h5.249V75.65l97.167-64.156l96.033,64.156v93.11h6.35v-0.046h2.394 c6.886-14.827,10.746-31.344,10.746-48.769C371.527,55.906,328.496-9.488,256.011,7.173z"></path>
				<path class="shadow-obj" style="opacity: 0.4; fill: rgb(90, 23, 23);" d="M256.011,7.173c-0.002-0.001-0.005-0.001-0.007-0.002v4.323l96.033,64.156 v93.11h6.35v-0.046h2.394c6.886-14.827,10.746-31.344,10.746-48.769C371.527,55.906,328.496-9.488,256.011,7.173z"></path>
			</g>
		</g></g>
		<g id="hexatar-hat"></g>
		<g id="hexatar-eyeglasses"><g class="hexatar-base">
		<g class="hexatar-eyeglasses-right">
			<path class="col-obj" style="fill: rgb(184, 207, 64);" d="M256,184.021c-6.86,0-11.679-3.827-20.728-8.228 c-12.721-6.186-36.432-7.426-59.334,1.619c-3.672,1.45-13.748,2.419-13.748,2.419c-2.006,1.269-1.898,8.084,0.002,11.347 c0,0,0.001,0,0.002,0c7.816,2.33,6.217,17.087,17.926,30.244c8.848,9.941,23.31,11.756,36.041,8.269 c13.895-3.806,21.669-12.993,26.747-29.318c2.313-6.864,13.445-7.848,13.445-7.848L256,184.021z M223.593,222.697 c-11.942,7.871-31.745,7.262-40.3-6.986c-7.764-12.93-9.478-28.775,0-33.908c9.478-5.134,47.554-7.323,53.688,3.518 C242.411,194.919,235.536,214.826,223.593,222.697z"></path>
		</g>
		<g class="hexatar-eyeglasses-left">
			<path class="col-obj" style="fill: rgb(184, 207, 64);" d="M256.342,192.525c0,0,10.423,0.984,12.736,7.848 c5.078,16.326,13.126,25.918,26.747,29.318c12.807,3.197,27.193,1.673,36.041-8.269c11.709-13.157,10.11-27.914,17.926-30.244 c0.001,0,0.002,0,0.002,0c1.9-3.263,2.008-10.078,0.002-11.347c0,0-10.076-0.969-13.748-2.419 c-22.901-9.045-46.613-7.805-59.334-1.619c-9.049,4.401-13.868,8.228-20.728,8.228L256.342,192.525z M275.006,185.321 c6.134-10.842,44.21-8.652,53.688-3.518c9.478,5.134,7.764,20.979,0,33.908c-8.555,14.247-28.357,14.856-40.3,6.986 C276.451,214.826,269.576,194.919,275.006,185.321z"></path>
			<path class="shadow-obj" style="opacity: 0.4; fill: rgb(155, 176, 44);" d="M256.342,192.525c0,0,10.423,0.984,12.736,7.848 c5.078,16.326,12.823,25.818,26.747,29.318c12.802,3.218,27.193,1.673,36.041-8.269c11.709-13.157,10.11-27.914,17.926-30.244 c0.001,0,0.002,0,0.002,0c1.9-3.263,2.008-10.078,0.002-11.347c0,0-10.076-0.969-13.748-2.419 c-22.901-9.045-46.613-7.805-59.334-1.619c-9.049,4.401-13.868,8.228-20.728,8.228L256.342,192.525z M275.006,185.321 c6.134-10.842,44.21-8.652,53.688-3.518c9.478,5.134,7.764,20.979,0,33.908c-8.555,14.247-28.357,14.856-40.3,6.986 C276.451,214.826,269.576,194.919,275.006,185.321z"></path>
		</g>
	</g></g>
	</g>
	<desc>Avatar generated from Hexatar.com - created with Snap</desc><text transform="matrix(1 0 0 1 0 528)" font-size="12">Avatar generated from Hexatar.com</text></svg>